<svg width="270" height="61" viewBox="0 0 270 61" fill="none" xmlns="http://www.w3.org/2000/svg">
<g filter="url(#filter0_dd_376_959)">
<path d="M22.3633 42.632C20.0806 42.632 18.3206 41.9813 17.0833 40.68C15.8459 39.3787 15.2273 37.4373 15.2273 34.856V21.896C15.2273 19.3147 15.8459 17.3733 17.0833 16.072C18.3206 14.7707 20.0806 14.12 22.3633 14.12C24.6459 14.12 26.4059 14.7707 27.6433 16.072C28.8806 17.3733 29.4993 19.3147 29.4993 21.896V34.856C29.4993 37.4373 28.8806 39.3787 27.6433 40.68C26.4059 41.9813 24.6459 42.632 22.3633 42.632ZM38.4593 30.216H36.8593V43.432H31.2913V16.008C31.2913 15.112 31.5686 14.4507 32.1233 14.024C32.6779 13.5973 33.3286 13.384 34.0753 13.384C34.8006 13.384 35.4406 13.5973 35.9953 14.024C36.5713 14.4507 36.8593 15.112 36.8593 16.008V24.968H38.4593V16.04C38.4593 15.144 38.7473 14.4827 39.3233 14.056C39.8993 13.608 40.5606 13.384 41.3073 13.384C41.6699 13.384 42.0219 13.4373 42.3633 13.544C42.7046 13.6507 43.0033 13.8213 43.2593 14.056C43.5366 14.2693 43.7499 14.5467 43.8993 14.888C44.0699 15.208 44.1553 15.592 44.1553 16.04V43.432H38.4593V30.216ZM22.3633 37.736C22.6833 37.736 22.9926 37.6187 23.2913 37.384C23.6113 37.1493 23.7713 36.6693 23.7713 35.944V20.808C23.7713 20.104 23.6113 19.6347 23.2913 19.4C22.9926 19.144 22.6833 19.016 22.3633 19.016C22.0433 19.016 21.7233 19.144 21.4033 19.4C21.1046 19.6347 20.9553 20.104 20.9553 20.808V35.944C20.9553 36.6693 21.1046 37.1493 21.4033 37.384C21.7233 37.6187 22.0433 37.736 22.3633 37.736ZM51.4193 43.432C50.0966 43.432 49.1046 43.0693 48.4433 42.344C47.7819 41.6187 47.4513 40.7227 47.4513 39.656V39.464C47.4513 38.376 47.7713 37.5333 48.4113 36.936C49.0726 36.3173 50.0753 36.008 51.4193 36.008H68.6033V35.432C68.6033 35.24 68.5606 35.112 68.4753 35.048C68.4113 34.984 68.2619 34.952 68.0273 34.952H49.4673C48.9126 34.952 48.4859 34.7813 48.1873 34.44C47.9099 34.0773 47.7713 33.6933 47.7713 33.288C47.7713 32.8827 47.8993 32.4987 48.1553 32.136C48.4113 31.7733 48.8486 31.592 49.4673 31.592H71.7393C73.0619 31.592 73.9686 31.8267 74.4593 32.296C74.9499 32.7653 75.1953 33.4693 75.1953 34.408V38.92H54.8753C54.6619 38.92 54.5126 38.984 54.4273 39.112C54.3419 39.2187 54.2993 39.336 54.2993 39.464C54.2993 39.8053 54.4913 39.976 54.8753 39.976H74.4593C75.0566 39.976 75.4726 40.168 75.7073 40.552C75.9633 40.9147 76.0913 41.3093 76.0913 41.736C76.0913 42.0987 75.9739 42.472 75.7393 42.856C75.5046 43.24 75.0779 43.432 74.4593 43.432H51.4193ZM52.1233 21.384C52.1446 20.4027 52.4539 19.6773 53.0513 19.208C53.6486 18.7387 54.4379 18.504 55.4193 18.504C56.3793 18.504 57.1473 18.7493 57.7233 19.24C58.3206 19.7093 58.6299 20.424 58.6513 21.384H64.4113C64.4326 20.4027 64.7419 19.6773 65.3393 19.208C65.9366 18.7387 66.7259 18.504 67.7073 18.504C68.6673 18.504 69.4353 18.7493 70.0113 19.24C70.6086 19.7093 70.9179 20.424 70.9393 21.384H73.5313C74.3419 21.384 74.9073 21.5973 75.2273 22.024C75.5473 22.4293 75.7073 22.8773 75.7073 23.368C75.7073 23.9227 75.5473 24.4027 75.2273 24.808C74.9073 25.2133 74.3419 25.416 73.5313 25.416H49.5953C48.7846 25.416 48.2086 25.2133 47.8673 24.808C47.5259 24.4027 47.3553 23.9227 47.3553 23.368C47.3553 22.8773 47.5259 22.4293 47.8673 22.024C48.2086 21.5973 48.7846 21.384 49.5953 21.384H52.1233ZM74.2353 26.472C75.0673 26.472 75.6539 26.6853 75.9953 27.112C76.3366 27.5173 76.5073 27.9867 76.5073 28.52C76.5073 29.096 76.3259 29.5867 75.9633 29.992C75.6219 30.376 75.0459 30.568 74.2353 30.568H48.7953C47.9846 30.568 47.4086 30.376 47.0673 29.992C46.7259 29.5867 46.5553 29.096 46.5553 28.52C46.5553 27.9867 46.7259 27.5173 47.0673 27.112C47.4086 26.6853 47.9846 26.472 48.7953 26.472H74.2353ZM72.9873 13.832C73.7979 13.832 74.3739 14.0453 74.7153 14.472C75.0566 14.8773 75.2273 15.336 75.2273 15.848C75.2273 16.424 75.0459 16.9147 74.6833 17.32C74.3419 17.7253 73.7766 17.928 72.9873 17.928H50.0113C49.2219 17.928 48.6566 17.7253 48.3153 17.32C47.9953 16.9147 47.8353 16.424 47.8353 15.848C47.8353 15.336 47.9953 14.8773 48.3153 14.472C48.6353 14.0453 49.2006 13.832 50.0113 13.832H72.9873ZM94.724 28.456V26.728C93.7213 26.7067 92.8467 26.568 92.1 26.312C91.3747 26.0347 90.7667 25.6613 90.276 25.192C89.7853 24.7013 89.412 24.136 89.156 23.496C88.9213 22.8347 88.804 22.12 88.804 21.352C88.804 20.8827 88.9 20.4027 89.092 19.912C88.5587 19.7627 88.1533 19.5067 87.876 19.144C87.5987 18.76 87.46 18.2907 87.46 17.736C87.46 17.032 87.6733 16.4667 88.1 16.04C88.548 15.6133 89.1773 15.4 89.988 15.4H94.532C94.6387 14.5893 94.9693 13.992 95.524 13.608C96.0787 13.224 96.804 13.032 97.7 13.032C98.596 13.032 99.3107 13.224 99.844 13.608C100.399 13.992 100.729 14.5893 100.836 15.4H105.38C106.191 15.4 106.809 15.6133 107.236 16.04C107.684 16.4667 107.908 17.032 107.908 17.736C107.908 18.2907 107.759 18.7493 107.46 19.112C107.183 19.4747 106.799 19.7307 106.308 19.88C106.5 20.3707 106.596 20.8613 106.596 21.352C106.596 22.12 106.468 22.8347 106.212 23.496C105.977 24.136 105.615 24.7013 105.124 25.192C104.633 25.6613 104.015 26.0347 103.268 26.312C102.543 26.568 101.679 26.7067 100.676 26.728V28.456H105.732C106.713 28.456 107.407 28.6907 107.812 29.16C108.217 29.6293 108.42 30.1947 108.42 30.856C108.42 31.5387 108.207 32.1147 107.78 32.584C107.375 33.0533 106.692 33.288 105.732 33.288H90.18C89.22 33.288 88.5267 33.0533 88.1 32.584C87.6733 32.1147 87.46 31.5387 87.46 30.856C87.46 30.1947 87.6627 29.6293 88.068 29.16C88.4947 28.6907 89.1987 28.456 90.18 28.456H94.724ZM109.476 16.552C109.476 15.5067 109.785 14.7173 110.404 14.184C111.023 13.6507 111.759 13.384 112.612 13.384C113.444 13.384 114.169 13.6613 114.788 14.216C115.428 14.7493 115.748 15.528 115.748 16.552V21.384H116.74C117.231 21.384 117.636 21.4693 117.956 21.64C118.276 21.8107 118.532 22.0347 118.724 22.312C118.916 22.568 119.055 22.8667 119.14 23.208C119.225 23.528 119.268 23.848 119.268 24.168C119.268 24.488 119.225 24.8187 119.14 25.16C119.055 25.48 118.916 25.7787 118.724 26.056C118.532 26.312 118.265 26.5253 117.924 26.696C117.604 26.8667 117.209 26.952 116.74 26.952H115.748V36.008H109.476V16.552ZM94.564 43.432C93.668 43.432 92.9213 43.3467 92.324 43.176C91.748 43.0053 91.2893 42.7387 90.948 42.376C90.6067 42.0133 90.3613 41.5333 90.212 40.936C90.084 40.3387 90.02 39.6133 90.02 38.76V37.384C90.02 36.296 90.34 35.5387 90.98 35.112C91.6413 34.664 92.42 34.44 93.316 34.44C94.212 34.44 94.9693 34.664 95.588 35.112C96.2067 35.56 96.516 36.3173 96.516 37.384V37.736C96.516 38.0987 96.5693 38.3227 96.676 38.408C96.7827 38.4933 97.0173 38.536 97.38 38.536H114.148C115.129 38.536 115.823 38.7813 116.228 39.272C116.633 39.7627 116.836 40.328 116.836 40.968C116.836 41.6293 116.623 42.2053 116.196 42.696C115.791 43.1867 115.108 43.432 114.148 43.432H94.564ZM99.428 22.76C99.94 22.76 100.324 22.6107 100.58 22.312C100.857 21.992 100.996 21.64 100.996 21.256C100.996 20.872 100.857 20.5413 100.58 20.264C100.324 19.9653 99.94 19.816 99.428 19.816H95.972C95.46 19.816 95.0653 19.9653 94.788 20.264C94.532 20.5413 94.404 20.872 94.404 21.256C94.404 21.64 94.532 21.992 94.788 22.312C95.0653 22.6107 95.46 22.76 95.972 22.76H99.428ZM127.876 43.528C126.767 43.528 125.796 43.368 124.964 43.048C124.153 42.7493 123.471 42.3333 122.916 41.8C122.383 41.2667 121.977 40.6373 121.7 39.912C121.444 39.1653 121.316 38.3547 121.316 37.48C121.316 36.6267 121.444 35.8267 121.7 35.08C121.977 34.3333 122.383 33.6933 122.916 33.16C123.471 32.6053 124.153 32.168 124.964 31.848C125.796 31.528 126.767 31.368 127.876 31.368H142.724C143.812 31.368 144.761 31.528 145.572 31.848C146.404 32.1467 147.087 32.5733 147.62 33.128C148.175 33.6613 148.591 34.3013 148.868 35.048C149.145 35.7947 149.284 36.6053 149.284 37.48C149.284 38.3547 149.145 39.1653 148.868 39.912C148.591 40.6587 148.175 41.2987 147.62 41.832C147.087 42.3653 146.404 42.7813 145.572 43.08C144.761 43.3787 143.812 43.528 142.724 43.528H127.876ZM143.492 24.776H142.052V30.248H136.516V16.104C136.516 15.208 136.783 14.536 137.316 14.088C137.871 13.6187 138.521 13.384 139.268 13.384C139.993 13.384 140.633 13.6187 141.188 14.088C141.764 14.536 142.052 15.208 142.052 16.104V19.976H143.492V16.104C143.492 15.208 143.769 14.536 144.324 14.088C144.9 13.6187 145.561 13.384 146.308 13.384C147.033 13.384 147.684 13.6187 148.26 14.088C148.836 14.536 149.124 15.208 149.124 16.104V30.248H143.492V24.776ZM121.124 25.48C122.233 25.0533 123.076 24.232 123.652 23.016C124.228 21.8 124.516 20.0933 124.516 17.896V16.936C124.516 15.912 124.793 15.1653 125.348 14.696C125.924 14.2053 126.617 13.96 127.428 13.96C128.239 13.96 128.943 14.2053 129.54 14.696C130.159 15.1653 130.468 15.912 130.468 16.936V17.896C130.468 18.344 130.457 18.7813 130.436 19.208C130.415 19.6133 130.383 20.008 130.34 20.392C132.26 20.776 133.689 21.736 134.628 23.272C135.588 24.808 135.951 27.0267 135.716 29.928H129.988C130.18 28.904 130.191 28.008 130.02 27.24C129.871 26.4507 129.551 25.8427 129.06 25.416C128.377 26.888 127.481 28.0507 126.372 28.904C125.284 29.736 124.047 30.248 122.66 30.44C121.849 30.5467 121.145 30.4187 120.548 30.056C119.972 29.6933 119.631 29.1707 119.524 28.488C119.268 26.9947 119.801 25.992 121.124 25.48ZM141.028 39.048C141.732 39.048 142.201 38.8773 142.436 38.536C142.671 38.1947 142.788 37.8427 142.788 37.48C142.788 37.1173 142.671 36.776 142.436 36.456C142.201 36.136 141.732 35.976 141.028 35.976H129.572C128.868 35.976 128.399 36.136 128.164 36.456C127.929 36.776 127.812 37.1173 127.812 37.48C127.812 37.8427 127.929 38.1947 128.164 38.536C128.399 38.8773 128.868 39.048 129.572 39.048H141.028ZM166.029 42.152C164.983 42.152 164.141 42.088 163.501 41.96C162.882 41.832 162.402 41.5867 162.061 41.224C161.741 40.8827 161.527 40.4027 161.421 39.784C161.314 39.144 161.261 38.3227 161.261 37.32V19.304C161.261 18.3013 161.314 17.4907 161.421 16.872C161.527 16.2533 161.741 15.7733 162.061 15.432C162.402 15.0693 162.882 14.824 163.501 14.696C164.141 14.568 164.983 14.504 166.029 14.504H172.845C173.314 14.504 173.698 14.5787 173.997 14.728C174.317 14.8773 174.573 15.0693 174.765 15.304C174.957 15.5387 175.085 15.816 175.149 16.136C175.234 16.456 175.277 16.7867 175.277 17.128C175.277 17.832 175.095 18.4507 174.733 18.984C174.391 19.496 173.762 19.752 172.845 19.752H168.269C167.842 19.752 167.565 19.816 167.437 19.944C167.33 20.0507 167.277 20.3173 167.277 20.744V25.64H171.213C171.682 25.64 172.066 25.7147 172.365 25.864C172.685 25.992 172.93 26.184 173.101 26.44C173.293 26.6747 173.421 26.952 173.485 27.272C173.57 27.5707 173.613 27.8907 173.613 28.232C173.613 28.936 173.442 29.544 173.101 30.056C172.759 30.568 172.13 30.824 171.213 30.824H167.277V35.912C167.277 36.3387 167.33 36.616 167.437 36.744C167.565 36.8507 167.842 36.904 168.269 36.904H173.997C174.466 36.904 174.85 36.9787 175.149 37.128C175.469 37.2773 175.725 37.4693 175.917 37.704C176.109 37.9387 176.237 38.216 176.301 38.536C176.386 38.856 176.429 39.1867 176.429 39.528C176.429 40.232 176.247 40.84 175.885 41.352C175.543 41.8853 174.914 42.152 173.997 42.152H166.029ZM177.549 30.824H176.653C176.162 30.824 175.757 30.7493 175.437 30.6C175.138 30.4507 174.893 30.248 174.701 29.992C174.53 29.736 174.402 29.4373 174.317 29.096C174.253 28.7547 174.221 28.392 174.221 28.008C174.221 27.6453 174.253 27.2933 174.317 26.952C174.402 26.6107 174.53 26.312 174.701 26.056C174.893 25.8 175.138 25.5973 175.437 25.448C175.757 25.2773 176.162 25.192 176.653 25.192H177.549V16.104C177.549 15.208 177.815 14.536 178.349 14.088C178.882 13.6187 179.522 13.384 180.269 13.384C180.994 13.384 181.634 13.6187 182.189 14.088C182.765 14.536 183.053 15.208 183.053 16.104V43.432H177.549V30.824ZM184.461 16.104C184.461 15.208 184.738 14.536 185.293 14.088C185.869 13.6187 186.53 13.384 187.277 13.384C188.002 13.384 188.653 13.6187 189.229 14.088C189.805 14.536 190.093 15.208 190.093 16.104V43.432H184.461V16.104ZM210.701 17.224C210.679 18.184 210.53 19.1653 210.253 20.168C211.597 20.2107 212.93 20.4773 214.253 20.968C215.575 21.4587 216.77 22.1947 217.837 23.176C218.903 24.1573 219.789 25.3947 220.493 26.888C221.218 28.3813 221.655 30.152 221.805 32.2H215.309C215.159 31.112 214.861 30.1413 214.413 29.288C213.965 28.4133 213.399 27.688 212.717 27.112C212.055 26.5147 211.298 26.0667 210.445 25.768C209.591 25.4693 208.685 25.3307 207.725 25.352C206.999 26.3547 206.178 27.272 205.261 28.104C204.343 28.936 203.373 29.6507 202.349 30.248C201.346 30.8453 200.301 31.3147 199.213 31.656C198.146 31.9973 197.09 32.1787 196.045 32.2C195.255 32.2213 194.573 32.0187 193.997 31.592C193.421 31.144 193.09 30.5253 193.005 29.736C192.919 28.968 193.079 28.296 193.485 27.72C193.89 27.144 194.498 26.7707 195.309 26.6C196.354 26.3653 197.367 25.9707 198.349 25.416C199.351 24.8613 200.247 24.168 201.037 23.336C201.826 22.4827 202.487 21.5013 203.021 20.392C203.554 19.2827 203.906 18.056 204.077 16.712C204.205 15.688 204.61 14.9413 205.293 14.472C205.997 13.9813 206.797 13.768 207.693 13.832C208.631 13.9173 209.378 14.248 209.933 14.824C210.487 15.4 210.743 16.2 210.701 17.224ZM219.693 37.384C220.183 37.384 220.599 37.4693 220.941 37.64C221.303 37.7893 221.591 37.992 221.805 38.248C222.039 38.504 222.199 38.8027 222.285 39.144C222.391 39.464 222.445 39.784 222.445 40.104C222.445 40.4453 222.391 40.776 222.285 41.096C222.178 41.416 222.007 41.704 221.773 41.96C221.559 42.216 221.282 42.4187 220.941 42.568C220.599 42.7173 220.183 42.792 219.693 42.792H195.245C194.754 42.792 194.338 42.7173 193.997 42.568C193.655 42.4187 193.367 42.216 193.133 41.96C192.919 41.704 192.759 41.416 192.653 41.096C192.546 40.776 192.493 40.4453 192.493 40.104C192.493 39.784 192.535 39.464 192.621 39.144C192.727 38.8027 192.887 38.504 193.101 38.248C193.335 37.992 193.623 37.7893 193.965 37.64C194.327 37.4693 194.754 37.384 195.245 37.384H219.693ZM251.693 37.416C252.183 37.416 252.599 37.5013 252.941 37.672C253.303 37.8213 253.591 38.024 253.805 38.28C254.039 38.536 254.199 38.824 254.285 39.144C254.391 39.464 254.445 39.784 254.445 40.104C254.445 40.4453 254.391 40.776 254.285 41.096C254.178 41.416 254.007 41.704 253.773 41.96C253.559 42.216 253.282 42.4187 252.941 42.568C252.599 42.7173 252.183 42.792 251.693 42.792H227.245C226.754 42.792 226.338 42.7173 225.997 42.568C225.655 42.4187 225.367 42.216 225.133 41.96C224.919 41.704 224.759 41.416 224.653 41.096C224.546 40.776 224.493 40.4453 224.493 40.104C224.493 39.784 224.535 39.464 224.621 39.144C224.727 38.824 224.887 38.536 225.101 38.28C225.335 38.024 225.623 37.8213 225.965 37.672C226.327 37.5013 226.754 37.416 227.245 37.416H251.693ZM250.413 14.344C250.861 14.344 251.234 14.4187 251.533 14.568C251.853 14.7173 252.109 14.9093 252.301 15.144C252.514 15.3787 252.663 15.6453 252.749 15.944C252.834 16.2427 252.877 16.5413 252.877 16.84C252.877 17.4587 252.685 18.024 252.301 18.536C251.917 19.048 251.287 19.304 250.413 19.304H233.389C232.749 19.304 232.429 19.5813 232.429 20.136V21.384H250.221C251.117 21.384 251.746 21.64 252.109 22.152C252.493 22.664 252.685 23.208 252.685 23.784C252.685 24.3813 252.493 24.936 252.109 25.448C251.725 25.9387 251.095 26.184 250.221 26.184H232.429V27.4C232.429 27.72 232.503 27.944 232.653 28.072C232.823 28.2 233.069 28.264 233.389 28.264H250.925C251.373 28.264 251.746 28.3387 252.045 28.488C252.365 28.6373 252.621 28.8293 252.813 29.064C253.026 29.2987 253.175 29.5653 253.261 29.864C253.346 30.1413 253.389 30.4293 253.389 30.728C253.389 31.3467 253.197 31.912 252.813 32.424C252.429 32.936 251.799 33.192 250.925 33.192H231.021C229.165 33.192 227.853 32.7973 227.085 32.008C226.317 31.1973 225.933 29.928 225.933 28.2V19.336C225.933 17.608 226.317 16.3493 227.085 15.56C227.853 14.7493 229.165 14.344 231.021 14.344H250.413Z" fill="white"/>
</g>
<defs>
<filter id="filter0_dd_376_959" x="0.227051" y="0.0319824" width="269.218" height="60.496" filterUnits="userSpaceOnUse" color-interpolation-filters="sRGB">
<feFlood flood-opacity="0" result="BackgroundImageFix"/>
<feColorMatrix in="SourceAlpha" type="matrix" values="0 0 0 0 0 0 0 0 0 0 0 0 0 0 0 0 0 0 127 0" result="hardAlpha"/>
<feOffset dy="2"/>
<feGaussianBlur stdDeviation="7.5"/>
<feComposite in2="hardAlpha" operator="out"/>
<feColorMatrix type="matrix" values="0 0 0 0 1 0 0 0 0 1 0 0 0 0 1 0 0 0 1 0"/>
<feBlend mode="normal" in2="BackgroundImageFix" result="effect1_dropShadow_376_959"/>
<feColorMatrix in="SourceAlpha" type="matrix" values="0 0 0 0 0 0 0 0 0 0 0 0 0 0 0 0 0 0 127 0" result="hardAlpha"/>
<feOffset dy="2"/>
<feGaussianBlur stdDeviation="2"/>
<feComposite in2="hardAlpha" operator="out"/>
<feColorMatrix type="matrix" values="0 0 0 0 0 0 0 0 0 0 0 0 0 0 0 0 0 0 0.5 0"/>
<feBlend mode="normal" in2="effect1_dropShadow_376_959" result="effect2_dropShadow_376_959"/>
<feBlend mode="normal" in="SourceGraphic" in2="effect2_dropShadow_376_959" result="shape"/>
</filter>
</defs>
</svg>
