<svg width="52" height="52" viewBox="0 0 52 52" fill="none" xmlns="http://www.w3.org/2000/svg">
<circle cx="26" cy="26" r="26" fill="#B5B5B5"/>
<g clip-path="url(#clip0_523_873)">
<path d="M26 14.6679L21.4667 19.2013L23.7334 21.4679L28.2667 16.9346C30.1367 15.0646 33.1967 15.0646 35.0667 16.9346C36.9367 18.8046 36.9367 21.8646 35.0667 23.7346L30.5334 28.268L32.8001 30.5346L37.3334 26.0013C40.4614 22.8733 40.4614 17.7959 37.3334 14.6679C34.2054 11.5399 29.1281 11.5399 26 14.6679ZM28.2667 30.5346L23.7334 35.068C21.8634 36.938 18.8034 36.938 16.9334 35.068C15.0634 33.198 15.0634 30.138 16.9334 28.268L21.4667 23.7346L19.2 21.4679L14.6667 26.0013C11.5387 29.1293 11.5387 34.2066 14.6667 37.3347C17.7947 40.4627 22.872 40.4627 26 37.3347L30.5334 32.8013L28.2667 30.5346ZM20.3334 29.4013L29.4001 20.3346L31.6667 22.6013L22.6 31.668L20.3334 29.4013Z" fill="white"/>
</g>
<defs>
<clipPath id="clip0_523_873">
<rect width="34" height="34" fill="white" transform="translate(9 9)"/>
</clipPath>
</defs>
</svg>
