<svg width="52" height="52" viewBox="0 0 52 52" fill="none" xmlns="http://www.w3.org/2000/svg">
<circle cx="26" cy="26" r="26" fill="#FEE500"/>
<path d="M25.7398 13C17.35 13 10.584 18.4127 10.584 24.9839C10.584 29.2492 13.3986 32.984 17.6206 35.1166L16.1916 40.4537C16.1647 40.5337 16.1606 40.6195 16.1797 40.7017C16.1988 40.784 16.2404 40.8592 16.2999 40.9191C16.3866 40.9956 16.4982 41.0379 16.6138 41.0382C16.7097 41.0305 16.8007 40.9926 16.8737 40.93L23.0226 36.7838C23.9303 36.9091 24.8452 36.9741 25.7615 36.9786C34.1405 36.9786 40.9173 31.5658 40.9173 24.9839C40.9173 18.4019 34.1188 13 25.7398 13Z" fill="#392020"/>
<path d="M15.8888 23.0894H14.2325C14.0272 23.0954 13.8244 23.0428 13.6479 22.9378C13.5695 22.8887 13.5021 22.8239 13.45 22.7475C13.3978 22.6712 13.362 22.5848 13.3448 22.494C13.3395 22.4363 13.3395 22.3785 13.3448 22.3208C13.3396 22.213 13.3605 22.1055 13.4058 22.0075C13.451 21.9095 13.5192 21.8239 13.6046 21.7579C13.7933 21.6212 14.0211 21.549 14.2541 21.5521H19.2447C19.4516 21.5449 19.6558 21.6016 19.8293 21.7145C19.9095 21.7615 19.9783 21.8257 20.0308 21.9025C20.0832 21.9792 20.1179 22.0666 20.1324 22.1584C20.1377 22.2124 20.1377 22.2668 20.1324 22.3208C20.1375 22.4302 20.1166 22.5392 20.0715 22.6389C20.0263 22.7387 19.9582 22.8262 19.8726 22.8945C19.6885 23.031 19.4629 23.0999 19.2339 23.0894H17.6317V28.7837C17.6382 28.905 17.6194 29.0263 17.5766 29.14C17.5337 29.2536 17.4677 29.3572 17.3827 29.444C17.3012 29.5271 17.2033 29.5921 17.0951 29.635C16.987 29.6779 16.8711 29.6976 16.7548 29.693C16.5515 29.6988 16.3525 29.6338 16.1919 29.5091C16.039 29.3872 15.9352 29.2141 15.8996 29.0218C15.8889 28.9428 15.8889 28.8627 15.8996 28.7837L15.8888 23.0894Z" fill="#FEE500"/>
<path d="M20.6097 21.9744C20.6573 21.7962 20.7691 21.6419 20.9236 21.5413C21.0883 21.448 21.2759 21.403 21.4649 21.4114H21.8763C22.0769 21.4042 22.2755 21.4529 22.45 21.5521C22.635 21.6765 22.7664 21.8658 22.8181 22.0826L24.9832 28.1991C25.0394 28.3586 25.0864 28.5214 25.124 28.6863C25.1277 28.7548 25.1277 28.8234 25.124 28.8919C25.1276 28.9974 25.1082 29.1025 25.0671 29.1997C25.0259 29.2969 24.9641 29.384 24.8858 29.4549C24.81 29.5326 24.7189 29.5939 24.6183 29.6349C24.5177 29.6758 24.4098 29.6956 24.3012 29.693C24.1342 29.7096 23.9666 29.6696 23.8252 29.5792C23.6838 29.4889 23.5769 29.3536 23.5218 29.1951L23.0671 27.8635H20.22L19.7653 29.1951C19.7115 29.3567 19.6034 29.4946 19.4593 29.5854C19.3152 29.6762 19.144 29.7142 18.975 29.693C18.792 29.6978 18.6127 29.6406 18.4662 29.5306C18.3236 29.4171 18.2273 29.2555 18.1956 29.076C18.1898 29.0148 18.1898 28.9531 18.1956 28.8919C18.177 28.7845 18.177 28.6747 18.1956 28.5672C18.1956 28.4482 18.2714 28.3182 18.3147 28.1991L20.6097 21.9744ZM21.6923 23.3926L20.6638 26.6403H22.7099L21.6923 23.3926Z" fill="#FEE500"/>
<path d="M25.372 22.3209C25.361 22.078 25.4467 21.8406 25.6102 21.6606C25.6933 21.5767 25.7931 21.5112 25.9031 21.4683C26.0132 21.4254 26.131 21.406 26.2489 21.4115C26.4517 21.4091 26.6496 21.4739 26.8118 21.5956C26.9622 21.7226 27.0621 21.8992 27.0933 22.0935C27.104 22.1689 27.104 22.2455 27.0933 22.3209V28.0152H30.0703C30.2767 28.0125 30.4795 28.0687 30.6549 28.1775C30.7337 28.2261 30.8015 28.2908 30.8537 28.3673C30.9059 28.4437 30.9415 28.5303 30.958 28.6214C30.958 28.6214 30.958 28.7297 30.958 28.7838C30.9632 28.8916 30.9423 28.999 30.897 29.097C30.8518 29.195 30.7836 29.2807 30.6982 29.3467C30.5095 29.4834 30.2817 29.5555 30.0487 29.5524H26.3896C26.1566 29.5674 25.925 29.5067 25.7293 29.3792C25.5542 29.2484 25.4376 29.054 25.4045 28.838C25.3966 28.719 25.3966 28.5996 25.4045 28.4806L25.372 22.3209Z" fill="#FEE500"/>
<path d="M31.1531 22.321C31.1466 22.0788 31.2316 21.843 31.3912 21.6607C31.5535 21.5132 31.7616 21.4262 31.9805 21.4143C32.1994 21.4025 32.4157 21.4666 32.5929 21.5957C32.7465 21.7215 32.8502 21.8981 32.8851 22.0936C32.8905 22.1693 32.8905 22.2453 32.8851 22.321V24.9732L35.624 21.8121C35.7295 21.7043 35.8416 21.6031 35.9596 21.5091C36.0708 21.4429 36.1983 21.409 36.3277 21.4116C36.5169 21.4105 36.7019 21.4672 36.8581 21.574C36.9317 21.6235 36.9946 21.6875 37.043 21.7619C37.0913 21.8363 37.1242 21.9196 37.1396 22.007C37.144 22.0285 37.144 22.0506 37.1396 22.072C37.1344 22.097 37.1344 22.1228 37.1396 22.1478C37.1392 22.2617 37.1094 22.3736 37.053 22.4726C36.9956 22.5774 36.9266 22.6753 36.8473 22.7648L35.0503 24.7351L37.2154 28.091V28.1992C37.3278 28.3544 37.4154 28.5261 37.4752 28.7081V28.7622C37.4877 28.8876 37.4696 29.0143 37.4225 29.1312C37.3754 29.2481 37.3006 29.3517 37.2046 29.4334C37.024 29.5699 36.803 29.6423 36.5767 29.6391C36.4263 29.6453 36.2769 29.6116 36.1437 29.5416C35.9995 29.4449 35.8807 29.315 35.7972 29.1627L33.7837 25.9151L32.8202 26.9219V28.7297C32.8267 28.9719 32.7416 29.2077 32.582 29.39C32.4965 29.4736 32.3947 29.539 32.283 29.5818C32.1713 29.6246 32.052 29.6441 31.9325 29.6391C31.7327 29.6433 31.5377 29.5782 31.3804 29.4551C31.2275 29.3332 31.1237 29.1602 31.0881 28.968C31.0774 28.8889 31.0774 28.8087 31.0881 28.7297L31.1531 22.321Z" fill="#FEE500"/>
</svg>
